# xmcd
#
# Track frame offsets: 
#        150
#        21933
#        52550
#        80062
#        121861
#        152796
#        177103
#        205601
#        233350
#        252025
#        284313
#        312105
#
# Disc length: 4731 seconds
#
# Revision: 0
# Processed by: cddbd v1.5.2PL0 Copyright (c) Steve Scherf et al.
# Submitted via: ExactAudioCopy v0.95b4
#
DISCID=8812790c
DTITLE=Various Artist - House 19
DYEAR=1900
DGENRE=
TTITLE0=DJ Hookma - Calinka
TTITLE1=DJ Jean - The launch
TTITLE2=DJ Sammy - In 2 eternity
TTITLE3=Whitney Houston - It´s not right, but it´s
TTITLE4=Members of Mayday - Soundtropolis
TTITLE5=Mr. Oizo - Flat Beat
TTITLE6=Sequential One - Imagination
TTITLE7=Talla 2XLC - Love´s coming down
TTITLE8=Aqua - Tarzan and Jane
TTITLE9=Arrakis - The spice
TTITLE10=Der Verfall - Der Verfall #2
TTITLE11=Finary Binary - 1999 (Matt Darey Mix)
EXTD=
EXTT0=
EXTT1=
EXTT2=
EXTT3=
EXTT4=
EXTT5=
EXTT6=
EXTT7=
EXTT8=
EXTT9=
EXTT10=
EXTT11=
PLAYORDER=
